# xmcd
# 
# Track frame offsets:
#     150
#     35180
#     54633
#     87503
#     115990
#     143985
#     177073
#     210230
#     231655
#     256313
#     282490
# 
# Disc length: 4186
# 
# Revision: 26
# Processed by: cddbd v1.5.2PL0 Copyright (c) Steve Scherf et al.
# Submitted via: fre:ac v1.0.31
# 
DISCID=a810580b
DTITLE=John Scofield - I Can See Your House From Here With Pat Metheny
DYEAR=1994
DGENRE=Jazz
TTITLE0=I Can See Your House from Here
TTITLE1=The Red One
TTITLE2=No Matter What
TTITLE3=Everybody's Party
TTITLE4=Message to My Friend
TTITLE5=No Way Jose
TTITLE6=Say the Brother's Name
TTITLE7=S.C.O.
TTITLE8=Quiet Rising
TTITLE9=One Way to be
TTITLE10=You Speak My Language
EXTD=
EXTT0=
EXTT1=
EXTT2=
EXTT3=
EXTT4=
EXTT5=
EXTT6=
EXTT7=
EXTT8=
EXTT9=
EXTT10=
PLAYORDER=
